<svg width="280" height="80" viewBox="0 0 280 80" fill="none" xmlns="http://www.w3.org/2000/svg">
<g filter="url(#filter0_d_130_202)">
<path d="M14.0321 6H62.2249L70.257 14V70H14.0321V6Z" fill="#1A5A88"/>
<path d="M10.0161 6H58.2088L66.241 14V70H10.0161V6Z" fill="#F9F9F9"/>
<path d="M6 6H54.1928L62.2249 14V70H6V6Z" fill="#1A5A88"/>
<path d="M24.1847 54V24.096H32.9558C34.6908 24.096 36.2008 24.272 37.4859 24.624C38.7711 24.976 39.8313 25.488 40.6667 26.16C41.502 26.8 42.1124 27.568 42.498 28.464C42.9157 29.36 43.1245 30.352 43.1245 31.44C43.1245 32.336 42.9478 33.232 42.5944 34.128C42.2731 34.992 41.7912 35.776 41.1486 36.48C40.506 37.152 39.7028 37.664 38.739 38.016C39.5743 38.336 40.3293 38.752 41.004 39.264C41.7108 39.776 42.3052 40.368 42.7871 41.04C43.2691 41.68 43.6386 42.384 43.8956 43.152C44.1847 43.92 44.3293 44.704 44.3293 45.504C44.3293 46.784 44.0884 47.952 43.6064 49.008C43.1566 50.032 42.4659 50.928 41.5341 51.696C40.6024 52.432 39.4137 53.008 37.9679 53.424C36.5221 53.808 34.8353 54 32.9076 54H24.1847ZM28.2329 50.544H33.4859C34.8032 50.544 35.9438 50.368 36.9076 50.016C37.9036 49.664 38.6747 49.104 39.2209 48.336C39.7671 47.568 40.0402 46.576 40.0402 45.36C40.0402 44.24 39.7992 43.264 39.3173 42.432C38.8353 41.568 38.0643 40.896 37.004 40.416C35.9438 39.904 34.498 39.648 32.6667 39.648H28.2329V50.544ZM28.2329 36.336H32.4739C34.1124 36.336 35.4137 36.144 36.3775 35.76C37.3414 35.376 38.0161 34.848 38.4016 34.176C38.8193 33.472 39.0281 32.704 39.0281 31.872C39.0281 31.232 38.9157 30.656 38.6908 30.144C38.4659 29.6 38.1125 29.136 37.6305 28.752C37.1807 28.336 36.5703 28.016 35.7992 27.792C35.0281 27.568 34.0964 27.456 33.004 27.456H28.2329V36.336Z" fill="#F9F9F9"/>
<path d="M90.3373 55.432C88.3454 55.432 86.5622 54.952 84.9879 53.992C83.4458 53 82.2249 51.64 81.3253 49.912C80.4257 48.184 79.9759 46.2 79.9759 43.96C79.9759 41.72 80.4257 39.736 81.3253 38.008C82.2249 36.28 83.4458 34.92 84.9879 33.928C86.5622 32.936 88.3454 32.44 90.3373 32.44C92.3293 32.44 94.0964 32.936 95.6385 33.928C97.2128 34.92 98.4498 36.28 99.3494 38.008C100.249 39.736 100.699 41.72 100.699 43.96C100.699 46.2 100.249 48.184 99.3494 49.912C98.4498 51.64 97.2128 53 95.6385 53.992C94.0964 54.952 92.3293 55.432 90.3373 55.432ZM90.3373 52.072C91.5261 52.072 92.5703 51.72 93.4699 51.016C94.3695 50.312 95.0763 49.352 95.5904 48.136C96.1365 46.92 96.4096 45.512 96.4096 43.912C96.4096 42.312 96.1365 40.904 95.5904 39.688C95.0763 38.472 94.3695 37.528 93.4699 36.856C92.5703 36.152 91.5261 35.8 90.3373 35.8C89.1807 35.8 88.1365 36.152 87.2048 36.856C86.3052 37.528 85.5823 38.472 85.0361 39.688C84.5221 40.904 84.2651 42.312 84.2651 43.912C84.2651 45.512 84.5221 46.92 85.0361 48.136C85.5502 49.352 86.257 50.312 87.1566 51.016C88.0883 51.72 89.1486 52.072 90.3373 52.072Z" fill="white"/>
<path d="M114.434 55.432C112.442 55.432 110.659 54.952 109.084 53.992C107.542 53 106.321 51.64 105.422 49.912C104.522 48.184 104.072 46.2 104.072 43.96C104.072 41.72 104.522 39.736 105.422 38.008C106.321 36.28 107.542 34.92 109.084 33.928C110.659 32.936 112.442 32.44 114.434 32.44C116.426 32.44 118.193 32.936 119.735 33.928C121.309 34.92 122.546 36.28 123.446 38.008C124.345 39.736 124.795 41.72 124.795 43.96C124.795 46.2 124.345 48.184 123.446 49.912C122.546 51.64 121.309 53 119.735 53.992C118.193 54.952 116.426 55.432 114.434 55.432ZM114.434 52.072C115.622 52.072 116.667 51.72 117.566 51.016C118.466 50.312 119.173 49.352 119.687 48.136C120.233 46.92 120.506 45.512 120.506 43.912C120.506 42.312 120.233 40.904 119.687 39.688C119.173 38.472 118.466 37.528 117.566 36.856C116.667 36.152 115.622 35.8 114.434 35.8C113.277 35.8 112.233 36.152 111.301 36.856C110.402 37.528 109.679 38.472 109.133 39.688C108.618 40.904 108.361 42.312 108.361 43.912C108.361 45.512 108.618 46.92 109.133 48.136C109.647 49.352 110.353 50.312 111.253 51.016C112.185 51.72 113.245 52.072 114.434 52.072Z" fill="white"/>
<path d="M136.169 44.296L133.614 46.696V55H129.422V22.984H134.048V23.368C133.855 23.56 133.727 23.768 133.663 23.992C133.631 24.216 133.614 24.6 133.614 25.144V42.328L143.831 32.824C144.056 32.856 144.281 32.888 144.506 32.92C144.731 32.952 144.956 32.984 145.181 33.016C145.438 33.016 145.695 33.032 145.952 33.064C146.209 33.064 146.434 33.064 146.626 33.064H148.361L139.205 41.752L149.759 55L144.699 55.192L136.169 44.296Z" fill="white"/>
<path d="M162.819 55.48C161.534 55.48 160.313 55.352 159.157 55.096C158 54.872 156.924 54.504 155.928 53.992C154.932 53.448 154 52.792 153.133 52.024L155.205 48.376L155.494 47.944L155.783 48.136C155.88 48.392 155.96 48.664 156.024 48.952C156.12 49.208 156.345 49.528 156.699 49.912C157.438 50.584 158.289 51.128 159.253 51.544C160.217 51.96 161.438 52.168 162.916 52.168C164.008 52.168 164.924 52.04 165.663 51.784C166.434 51.496 167.012 51.128 167.398 50.68C167.815 50.2 168.024 49.64 168.024 49C168.024 48.552 167.928 48.168 167.735 47.848C167.542 47.496 167.237 47.176 166.819 46.888C166.402 46.6 165.839 46.312 165.133 46.024C164.426 45.704 163.574 45.4 162.578 45.112C160.94 44.632 159.494 44.088 158.241 43.48C157.02 42.84 156.072 42.088 155.398 41.224C154.723 40.36 154.386 39.368 154.386 38.248C154.386 37.064 154.707 36.04 155.349 35.176C156.024 34.312 156.972 33.64 158.193 33.16C159.446 32.648 160.956 32.392 162.723 32.392C163.719 32.392 164.635 32.472 165.47 32.632C166.305 32.76 167.076 32.968 167.783 33.256C168.522 33.544 169.197 33.912 169.807 34.36C170.45 34.776 171.044 35.272 171.59 35.848L169.373 38.68L169.036 39.064L168.795 38.824C168.763 38.568 168.683 38.328 168.554 38.104C168.458 37.848 168.217 37.544 167.831 37.192C167.124 36.648 166.321 36.232 165.422 35.944C164.554 35.656 163.687 35.512 162.819 35.512C161.598 35.512 160.538 35.72 159.639 36.136C158.771 36.552 158.337 37.192 158.337 38.056C158.337 38.536 158.514 38.984 158.867 39.4C159.221 39.816 159.831 40.232 160.699 40.648C161.566 41.064 162.787 41.48 164.361 41.896C166.161 42.44 167.622 43.016 168.747 43.624C169.871 44.232 170.691 44.936 171.205 45.736C171.719 46.536 171.976 47.48 171.976 48.568C171.976 49.784 171.639 50.936 170.964 52.024C170.289 53.08 169.261 53.928 167.88 54.568C166.53 55.176 164.843 55.48 162.819 55.48Z" fill="white"/>
<path d="M177.904 22.984H182.386V23.368C182.225 23.56 182.112 23.768 182.048 23.992C182.016 24.216 182 24.6 182 25.144V36.52C182.546 35.656 183.205 34.92 183.976 34.312C184.747 33.704 185.55 33.24 186.386 32.92C187.253 32.568 188.12 32.392 188.988 32.392C190.337 32.392 191.526 32.712 192.554 33.352C193.614 33.96 194.418 34.952 194.964 36.328C195.542 37.672 195.831 39.448 195.831 41.656V55H191.783V41.752C191.783 40.28 191.622 39.112 191.301 38.248C190.98 37.384 190.53 36.76 189.952 36.376C189.406 35.992 188.763 35.8 188.024 35.8C187.446 35.8 186.867 35.896 186.289 36.088C185.711 36.28 185.165 36.568 184.651 36.952C184.137 37.304 183.671 37.752 183.253 38.296C182.867 38.808 182.562 39.4 182.337 40.072C182.112 40.744 182 41.496 182 42.328V55H177.904V22.984Z" fill="white"/>
<path d="M211.88 55.48C210.273 55.48 208.795 55.24 207.446 54.76C206.129 54.248 204.972 53.512 203.976 52.552C203.012 51.592 202.273 50.392 201.759 48.952C201.245 47.512 200.988 45.88 200.988 44.056C200.988 42.2 201.245 40.552 201.759 39.112C202.305 37.672 203.044 36.456 203.976 35.464C204.908 34.472 206 33.72 207.253 33.208C208.506 32.664 209.839 32.392 211.253 32.392C212.506 32.392 213.695 32.616 214.819 33.064C215.944 33.48 216.908 34.12 217.711 34.984C218.546 35.848 219.205 36.952 219.687 38.296C220.169 39.608 220.41 41.16 220.41 42.952C220.41 43.24 220.394 43.56 220.361 43.912C220.361 44.232 220.345 44.52 220.313 44.776H204.94C205.004 46.088 205.229 47.224 205.614 48.184C206.032 49.112 206.562 49.88 207.205 50.488C207.847 51.064 208.57 51.496 209.373 51.784C210.209 52.072 211.092 52.216 212.024 52.216C212.763 52.216 213.454 52.136 214.096 51.976C214.771 51.816 215.398 51.56 215.976 51.208C216.554 50.856 217.084 50.424 217.566 49.912L219.783 52.024C219.141 52.792 218.402 53.448 217.566 53.992C216.763 54.504 215.88 54.872 214.916 55.096C213.984 55.352 212.972 55.48 211.88 55.48ZM205.084 41.656H216.313C216.313 40.696 216.185 39.848 215.928 39.112C215.671 38.376 215.317 37.736 214.867 37.192C214.418 36.648 213.855 36.248 213.181 35.992C212.538 35.704 211.815 35.56 211.012 35.56C210.273 35.56 209.582 35.688 208.94 35.944C208.297 36.168 207.703 36.536 207.157 37.048C206.643 37.56 206.193 38.2 205.807 38.968C205.454 39.704 205.213 40.6 205.084 41.656Z" fill="white"/>
<path d="M226.434 55V51.736H232.843V26.248H226.723V22.984H237.036V51.736H243.446V55H226.434Z" fill="white"/>
<path d="M254.386 36.184H249.614V32.92H254.386V31.288C254.386 29.304 254.755 27.688 255.494 26.44C256.265 25.16 257.293 24.216 258.578 23.608C259.863 23 261.293 22.696 262.867 22.696C264.313 22.696 265.647 22.952 266.867 23.464C268.12 23.944 269.165 24.696 270 25.72L268.072 28.648L267.831 29.032L267.494 28.84C267.43 28.584 267.349 28.328 267.253 28.072C267.157 27.816 266.932 27.512 266.578 27.16C266.032 26.712 265.502 26.408 264.988 26.248C264.474 26.056 263.831 25.96 263.06 25.96C262.161 25.96 261.357 26.136 260.651 26.488C259.944 26.84 259.398 27.4 259.012 28.168C258.626 28.936 258.434 29.96 258.434 31.24V32.92H265.47V36.184H258.434V55H254.386V36.184Z" fill="white"/>
</g>
<defs>
<filter id="filter0_d_130_202" x="0" y="0" width="280" height="80" filterUnits="userSpaceOnUse" color-interpolation-filters="sRGB">
<feFlood flood-opacity="0" result="BackgroundImageFix"/>
<feColorMatrix in="SourceAlpha" type="matrix" values="0 0 0 0 0 0 0 0 0 0 0 0 0 0 0 0 0 0 127 0" result="hardAlpha"/>
<feOffset dx="2" dy="2"/>
<feGaussianBlur stdDeviation="4"/>
<feComposite in2="hardAlpha" operator="out"/>
<feColorMatrix type="matrix" values="0 0 0 0 0.101961 0 0 0 0 0.352941 0 0 0 0 0.533333 0 0 0 0.25 0"/>
<feBlend mode="normal" in2="BackgroundImageFix" result="effect1_dropShadow_130_202"/>
<feBlend mode="normal" in="SourceGraphic" in2="effect1_dropShadow_130_202" result="shape"/>
</filter>
</defs>
</svg>
